HIERARCHY
ROOT Hips
{
	OFFSET -0.001795 -0.223333 0.028219
	CHANNELS 6 Xposition Yposition Zposition Zrotation Yrotation Xrotation 
	JOINT LeftUpLeg
	{
		OFFSET 0.069520 -0.091406 -0.006815
		CHANNELS 3 Zrotation Yrotation Xrotation
		JOINT LeftLeg
		{
			OFFSET 0.034277 -0.375199 -0.004496
			CHANNELS 3 Zrotation Yrotation Xrotation
			JOINT LeftFoot
			{
				OFFSET -0.013596 -0.397961 -0.043693
				CHANNELS 3 Zrotation Yrotation Xrotation
				JOINT LeftToe
				{
					OFFSET 0.026358 -0.055791 0.119288
					CHANNELS 3 Zrotation Yrotation Xrotation
					End Site
					{
						OFFSET 0.000000 0.000000 0.000000
					}
				}
			}
		}
	}
	JOINT RightUpLeg
	{
		OFFSET -0.067670 -0.090522 -0.004320
		CHANNELS 3 Zrotation Yrotation Xrotation
		JOINT RightLeg
		{
			OFFSET -0.038290 -0.382569 -0.008850
			CHANNELS 3 Zrotation Yrotation Xrotation
			JOINT RightFoot
			{
				OFFSET 0.015774 -0.398415 -0.042312
				CHANNELS 3 Zrotation Yrotation Xrotation
				JOINT RightToe
				{
					OFFSET -0.025372 -0.048144 0.123348
					CHANNELS 3 Zrotation Yrotation Xrotation
					End Site
					{
						OFFSET 0.000000 0.000000 0.000000
					}
				}
			}
		}
	}
	JOINT Spine
	{
		OFFSET -0.002533 0.108963 -0.026696
		CHANNELS 3 Zrotation Yrotation Xrotation
		JOINT Spine1
		{
			OFFSET 0.005487 0.135180 0.001092
			CHANNELS 3 Zrotation Yrotation Xrotation
			JOINT Spine2
			{
				OFFSET 0.001457 0.052922 0.025425
				CHANNELS 3 Zrotation Yrotation Xrotation
				JOINT Neck
				{
					OFFSET -0.002778 0.213870 -0.042857
					CHANNELS 3 Zrotation Yrotation Xrotation
					JOINT Head
					{
						OFFSET 0.005152 0.064970 0.051349
						CHANNELS 3 Zrotation Yrotation Xrotation
						End Site
						{
							OFFSET 0.000000 0.000000 0.000000
						}
					}
				}
				JOINT LeftShoulder
				{
					OFFSET 0.078845 0.121749 -0.034090
					CHANNELS 3 Zrotation Yrotation Xrotation
					JOINT LeftArm
					{
						OFFSET 0.090977 0.030469 -0.008868
						CHANNELS 3 Zrotation Yrotation Xrotation
						JOINT LeftForeArm
						{
							OFFSET 0.259612 -0.012772 -0.027456
							CHANNELS 3 Zrotation Yrotation Xrotation
							JOINT LeftHand
							{
								OFFSET 0.249234 0.008986 -0.001171
								CHANNELS 3 Zrotation Yrotation Xrotation
								End Site
								{
									OFFSET 0.000000 0.000000 0.000000
								}
							}
						}
					}
				}
				JOINT RightShoulder
				{
					OFFSET -0.081759 0.118833 -0.038615
					CHANNELS 3 Zrotation Yrotation Xrotation
					JOINT RightArm
					{
						OFFSET -0.096012 0.032551 -0.009143
						CHANNELS 3 Zrotation Yrotation Xrotation
						JOINT RightForeArm
						{
							OFFSET -0.253742 -0.013329 -0.021401
							CHANNELS 3 Zrotation Yrotation Xrotation
							JOINT RightHand
							{
								OFFSET -0.255298 0.007772 -0.005559
								CHANNELS 3 Zrotation Yrotation Xrotation
								End Site
								{
									OFFSET 0.000000 0.000000 0.000000
								}
							}
						}
					}
				}
			}
		}
	}
}
MOTION
Frames: 6
Frame Time: 0.050000
0.000000 0.940754 0.000000 -0.327076 2.974856 1.534852 11.189109 -0.294828 2.319754 -5.779374 0.544077 -2.589123 3.035587 10.228835 13.769685 0.000000 0.000000 0.000000 -6.913668 0.141584 -0.224913 6.952824 -0.834322 1.835464 -3.123431 -10.376430 11.026371 0.000000 0.000000 0.000000 -2.625680 0.025910 0.278864 3.183733 -0.275801 -20.650115 -1.853616 -4.191740 28.130380 -3.123544 2.818757 -14.059909 0.000000 0.000000 0.000000 -9.859162 4.140891 -2.049964 -26.272942 -7.982473 -3.071354 19.485051 -6.361244 -0.527514 0.000000 0.000000 0.000000 -2.246343 -2.147347 -0.579913 31.209163 -4.769901 -5.411837 -17.904168 3.722510 -0.077336 0.000000 0.000000 0.000000 
0.000111 0.939860 -0.000726 -0.549412 2.383987 1.467239 11.148265 -0.279305 3.232432 -5.420262 0.506143 -3.894683 3.327479 10.615699 13.776240 0.000000 0.000000 0.000000 -6.861425 0.146220 -0.127672 7.160941 -0.841861 1.539517 -2.863230 -9.890515 10.792299 0.000000 0.000000 0.000000 -2.616249 0.022780 0.462402 4.259029 -0.574952 -20.802942 -2.411735 -2.924720 28.086215 -4.248911 3.799857 -13.328592 0.000000 0.000000 0.000000 -10.682458 4.228135 -2.262319 -29.540959 -9.058738 -3.120718 17.689178 -7.886639 -0.640317 0.000000 0.000000 0.000000 -0.327998 -2.372192 -0.819761 34.457248 -6.116083 -6.365461 -18.829285 9.177062 -0.761110 0.000000 0.000000 0.000000 
0.000495 0.938056 -0.001871 -0.557844 1.402255 0.868051 10.793460 -0.213289 3.475637 -4.999353 0.501083 -2.852590 3.940848 11.328312 13.068904 0.000000 0.000000 0.000000 -7.428237 0.173906 -0.406770 7.917483 -0.958465 2.831903 -2.502524 -9.123074 10.007068 0.000000 0.000000 0.000000 -1.571206 -0.009412 0.964233 3.452566 -0.379764 -20.759395 -2.742381 -2.171073 29.281776 -2.347855 2.460174 -15.571582 0.000000 0.000000 0.000000 -11.663574 3.478603 -1.970142 -32.320460 -9.050324 -3.436673 17.684703 -9.157323 -0.755489 0.000000 0.000000 0.000000 1.700199 -1.337721 -0.585419 37.570151 -4.600385 -6.653611 -19.408386 7.189509 -0.476375 0.000000 0.000000 0.000000 
0.000889 0.938115 -0.003325 -0.451320 1.403878 1.146292 10.825117 -0.220986 3.384328 -5.323749 0.519448 -3.395152 3.907148 11.309057 13.257952 0.000000 0.000000 0.000000 -7.632674 0.201461 -0.968854 8.026581 -0.982025 3.115746 -2.534710 -9.191324 10.041012 0.000000 0.000000 0.000000 -2.089412 0.007790 0.706939 4.047712 -0.519577 -21.121476 -3.133323 -3.124706 30.288027 -4.416669 3.814638 -15.012675 0.000000 0.000000 0.000000 -13.606087 3.689714 -2.033746 -36.393220 -8.426902 -4.067522 17.317185 -10.227462 -0.757798 0.000000 0.000000 0.000000 2.745165 0.237834 -0.087635 41.409013 -4.997366 -7.590389 -19.286675 9.363285 -0.782765 0.000000 0.000000 0.000000 
0.001176 0.937601 -0.005142 -0.113336 1.277467 1.158769 10.330277 -0.190788 2.995491 -5.169792 0.515762 -2.874229 4.016967 11.434025 13.079379 0.000000 0.000000 0.000000 -7.749102 0.219647 -1.406007 7.520552 -0.924259 3.659937 -2.605131 -9.242791 9.601163 0.000000 0.000000 0.000000 -2.349133 0.001474 1.250650 4.764528 -0.726140 -20.976240 -3.708919 -2.975413 29.992254 -4.383339 3.790177 -16.137507 0.000000 0.000000 0.000000 -15.461551 2.956966 -1.798431 -39.273239 -7.635256 -4.527997 16.781949 -10.728327 -0.751719 0.000000 0.000000 0.000000 4.797806 0.857970 0.024243 45.050672 -4.245016 -8.019112 -20.335257 10.037086 -0.893779 0.000000 0.000000 0.000000 
0.001299 0.937195 -0.007128 0.065446 1.087165 1.446948 9.964023 -0.175431 2.470562 -4.937369 0.501396 -2.649429 4.172621 11.643257 13.009508 0.000000 0.000000 0.000000 -7.998283 0.248504 -1.971229 7.567769 -0.930328 3.825116 -2.588633 -9.185917 9.425408 0.000000 0.000000 0.000000 -2.507825 0.004062 1.436593 4.576306 -0.697009 -20.665128 -3.365473 -3.731926 29.781907 -4.823105 3.950583 -17.091306 0.000000 0.000000 0.000000 -16.556930 2.939204 -1.680431 -42.700166 -7.537577 -4.898146 15.879874 -10.501931 -0.604261 0.000000 0.000000 0.000000 5.660644 1.222285 0.044965 48.388469 -2.698061 -8.064704 -20.667926 11.799891 -1.188148 0.000000 0.000000 0.000000 
